<?xml version="1.0" encoding="UTF-8"?>
<!DOCTYPE svg PUBLIC "-//W3C//DTD SVG 1.1//EN" "http://www.w3.org/Graphics/SVG/1.1/DTD/svg11.dtd">
<!-- Creator: CorelDRAW 2019 (64-Bit) -->
<svg xmlns="http://www.w3.org/2000/svg" xml:space="preserve" width="4.55854in" height="7.32993in" version="1.1" style="shape-rendering:geometricPrecision; text-rendering:geometricPrecision; image-rendering:optimizeQuality; fill-rule:evenodd; clip-rule:evenodd"
viewBox="0 0 24642.29 39623.75"
 xmlns:xlink="http://www.w3.org/1999/xlink"
 xmlns:xodm="http://www.corel.com/coreldraw/odm/2003">
 <defs>
  <style type="text/css">
   <![CDATA[
    .fil1 {fill:#BA0006}
    .fil0 {fill:#BA0006;fill-rule:nonzero}
   ]]>
  </style>
 </defs>
 <g id="Layer_x0020_1">
  <metadata id="CorelCorpID_0Corel-Layer"/>
  <path class="fil0" d="M11623.89 35012.39c-20.07,-361.67 -30.11,-723.37 -50.23,-1145.32 -371.74,0 -733.42,0 -1145.34,0 0,-401.86 0,-743.46 0,-1145.34 -381.76,0 -723.35,0 -1105.11,0 0,-411.92 0,-773.6 0,-1165.41 341.58,0 663.08,0 1095.07,0 0,-411.92 0,-793.69 0,-1165.41l-10.02 10.05c371.72,0 753.48,0 1125.2,0 0,-401.86 0,-743.44 0,-1115.16 -401.86,0 -763.53,0 -1125.2,0l20.07 20.09c0,-813.78 0,-1627.56 0,-2431.27l-20.07 20.07c391.79,0 773.6,0 1165.41,0 0,-391.81 0,-733.39 0,-1115.16 -411.92,0 -783.64,0 -1165.41,0l20.07 10.05c0,-743.44 0,-1476.85 0,-2220.29 0,0 -20.07,10.05 -20.07,10.05 411.92,-10.05 813.76,-10.05 1225.68,-20.09 0,371.72 0,743.46 0,1115.18 391.81,0 733.39,0 1095.09,0 0,-371.72 0,-713.32 0,-1095.09 -381.76,0 -743.46,0 -1105.13,0 -20.07,-391.81 -50.23,-773.6 -70.32,-1165.41 -411.92,-20.09 -773.6,-40.2 -1135.29,-60.29l20.09 10.05c0,-361.67 0,-723.35 0,-1145.32 381.76,0 723.37,0 1105.13,0 0,-391.81 0,-743.44 0,-1095.07 -281.31,-251.15 -793.69,170.77 -1105.13,-371.74 432.01,0 773.6,0 1205.59,0 0,-431.99 0,-823.8 0,-1215.63l-20.09 20.07c371.72,0 753.48,0 1155.36,0 0,-401.83 0,-733.39 0,-1115.16 -401.86,0 -773.6,0 -1155.36,0 0,0 20.09,20.09 20.09,20.09 -10.05,-411.92 -30.14,-833.85 -40.2,-1245.77 391.81,0 773.6,0 1145.32,0 0,-381.76 0,-713.32 0,-1044.84 -391.81,0 -733.39,0 -1125.2,0 0,371.72 0,713.3 0,1064.95 -813.78,-10.05 -1617.49,-20.09 -2431.27,-30.14l10.05 10.05c-10.05,-341.58 -10.05,-693.19 -20.09,-1034.8 0,0 -10.05,0 -10.05,0 391.81,-30.14 783.64,-60.29 1225.7,-90.41 0,-331.56 0,-673.12 0,-1075 -341.6,0 -693.21,0 -1105.13,0 0,-401.86 0,-743.44 0,-1155.36 -401.83,0 -753.48,0 -1155.36,0 0,-482.24 0,-894.14 0,-1406.52 -401.83,40.2 -743.44,80.36 -1085.02,110.52 0,0 10.05,10.05 10.05,10.05 10.02,-442.04 10.02,-874.05 20.07,-1316.11l-10.05 10.05c361.7,0 713.32,10.05 1075,10.05 0,381.76 0,753.48 0,1165.41 381.76,0 743.44,0 1115.16,0 0,-381.76 0,-743.44 0,-1145.32 -401.83,0 -763.53,0 -1125.2,0 0,-823.82 0,-1647.67 0,-2521.68 341.6,-20.09 683.17,-40.2 1105.13,-60.29 0,-371.72 0,-743.44 0,-1125.2l-10.05 10.05c401.83,0 793.69,10.05 1195.52,10.05 0,361.67 0,713.3 0,1074.98 442.06,0 793.69,0 1145.34,0 0,-381.76 0,-723.35 0,-1125.2 -411.92,20.09 -783.64,40.2 -1165.41,60.29 10.02,-421.97 30.11,-833.87 40.18,-1255.81l-20.07 20.07c371.72,0 753.48,0 1135.27,0 0,-391.81 0,-743.44 0,-1115.16 -411.92,0 -773.6,0 -1135.27,0l20.07 20.09c0,-361.67 0,-733.42 0,-1145.32 381.76,-20.09 743.46,-30.14 1155.38,-50.25 0,-381.76 0,-723.37 0,-1004.68 1145.32,-261.22 2210.23,-592.74 3295.27,-733.39 5495.48,-723.35 10428.35,4299.95 9664.82,9795.43 -391.81,2843.19 -1808.39,5023.32 -4239.66,6550.36 -100.45,60.29 -190.9,130.61 -291.36,200.95 914.23,7102.94 1818.44,14175.74 2732.65,21308.82 -4119.07,0 -8187.96,0 -12317.1,0 0,-221.04 0,-442.06 0,-673.12l-10.02 10.05c371.72,0 753.48,0 1125.2,0 0,-411.92 0,-753.48 0,-1115.16 -401.86,0 -763.53,0 -1125.2,0l10.02 10.02c0,-371.72 0,-753.48 0,-1135.27 -462.13,-30.14 -843.91,-60.29 -1225.68,-80.36l20.09 10.05c0,-763.53 0,-1517.06 0,-2310.74 442.04,0 793.69,0 1195.52,0 0,351.65 0,693.21 0,1075 442.06,0 833.87,0 1225.7,0 0,381.76 0,753.48 0,1155.36 391.81,0 753.48,0 1115.16,0 0,-381.76 0,-733.39 0,-1135.27 -431.97,-9.98 -793.67,-9.98 -1155.34,-9.98zm1225.66 -2260.5c-401.83,0 -813.76,0 -1215.63,0 0,401.86 0,743.44 0,1095.09 391.81,0 743.44,0 1125.2,0 30.11,-391.81 50.25,-753.48 70.32,-1105.13 361.7,0 713.32,0 1064.95,0 0,-421.95 0,-763.53 0,-1105.11 -381.76,0 -723.35,0 -1115.16,0 30.16,391.81 50.25,753.48 70.32,1115.16zm-10.02 -28522.28c381.76,0 733.39,0 1074.98,0 0,-381.76 0,-723.35 0,-1095.07 -371.72,0 -713.3,0 -1074.98,0 0,371.72 0,733.39 0,1095.07zm-2391.09 7313.93c0,381.74 0,733.39 0,1085.02 381.76,0 723.37,0 1085.04,0 0,-381.76 0,-733.39 0,-1085.02 -381.79,0 -733.44,0 -1085.04,0zm4581.24 13211.27c-371.74,0 -723.37,0 -1064.95,0 0,381.76 0,723.37 0,1064.95 381.76,0 723.35,0 1064.95,0 0,-371.74 0,-713.35 0,-1064.95zm-3405.79 3325.41c381.76,0 723.37,0 1085.04,0 0,-381.76 0,-733.39 0,-1085.02 -381.76,0 -723.37,0 -1085.04,0 0,361.67 0,693.23 0,1085.02zm2270.54 1255.84c-391.81,0 -713.32,0 -1064.95,0 0,361.67 0,703.26 0,1044.82 371.72,0 723.35,0 1064.95,0 0,-371.72 0,-693.19 0,-1044.82zm60.27 -9212.74c391.81,0 733.39,0 1075,0 0,-371.72 0,-693.21 0,-1044.84 -371.72,0 -713.32,0 -1075,0 0,361.67 0,683.17 0,1044.84z"/>
  <path class="fil1" d="M8167.87 6590.59l0 -1195.56c348.31,0 686.79,0 1034.84,0 3.36,0 6.64,0 10,0l-10 -20.05c0,6.7 0,13.34 0,20.05 0,401.58 0,793.84 0,1195.56 0,3.36 0,6.7 0,10.07l10 -10.07c-3.36,0 -6.64,0 -10,0 -328.2,0 -656.9,0 -1034.84,0z"/>
  <polygon class="fil1" points="7949.2,5796.32 6966.97,5792.39 6966.97,6837.21 7975.61,6827.61 "/>
  <path class="fil0" d="M9162.47 15180.4c-693.19,-60.27 -1386.43,-110.52 -2089.7,-170.77 0,-351.63 0,-693.21 0,-1085.04 713.32,30.14 1396.47,60.29 2190.16,100.45 -40.16,391.81 -80.36,773.6 -100.45,1155.36 -10.05,0 0,0 0,0z"/>
  <path class="fil0" d="M10418.28 23569.3c-361.67,-20.09 -723.35,-30.11 -1135.27,-50.25 0,-361.67 0,-703.26 0,-1095.07 381.76,-20.09 763.53,-40.2 1135.27,-50.25 0,0 -20.07,-10.05 -20.07,-10.05 0,411.92 0,813.78 0,1225.7l20.07 -20.09z"/>
  <path class="fil0" d="M10358.01 3104.41c-361.67,0 -713.32,0 -1105.11,0 0,-361.67 0,-703.28 0,-1085.04 351.63,0 713.3,0 1105.11,0 0,341.6 0,693.21 0,1085.04z"/>
  <path class="fil0" d="M2300.66 8830.97c0,-371.74 0,-693.21 0,-1064.95 351.63,0 693.19,0 1085.02,0 0,331.54 0,683.15 0,1064.95 -361.67,0 -713.3,0 -1085.02,0z"/>
  <path class="fil0" d="M8037.26 24704.59c0,-401.86 0,-723.37 0,-1085.04 361.67,0 713.32,0 1095.09,0 0,341.58 0,703.28 0,1085.04 -361.7,0 -713.32,0 -1095.09,0z"/>
  <path class="fil0" d="M7032.6 11573.66c-40.2,341.6 -90.41,673.12 -130.61,1024.75 -351.63,0 -693.21,0 -1064.95,0 0,-371.72 0,-713.3 0,-1155.36 401.88,40.2 803.75,90.45 1195.56,130.61 0,10.07 0,0 0,0z"/>
  <path class="fil0" d="M10418.28 38538.73c-371.72,0 -753.48,0 -1205.57,0 0,-381.76 0,-743.44 0,-1095.07l-20.09 10.05c401.86,0 813.78,0 1215.65,0l-10.05 -10.05c0,371.72 0,743.44 0,1115.16l20.05 -20.09z"/>
  <path class="fil0" d="M9202.67 5395.02c20.09,-351.63 40.2,-693.19 70.34,-1095.07 391.79,0 763.53,0 1145.32,0 0,0 -20.09,-20.09 -20.09,-20.09 0,371.72 0,743.44 0,1115.16l20.09 -20.09c-411.92,0 -813.78,0 -1225.7,0l10.05 20.09z"/>
  <path class="fil0" d="M7052.69 10267.64c-391.81,0 -793.69,0 -1225.7,0 0,-341.6 0,-683.17 0,-1064.95 341.6,0 683.17,0 1044.84,0 60.31,351.63 120.57,713.3 180.86,1064.95 0,0 0,0 0,0z"/>
  <path class="fil0" d="M9162.47 16195.13c0,391.79 0,783.64 0,1205.57 -351.63,0 -693.19,0 -1064.95,0 0,-371.72 0,-723.35 0,-1105.11 361.7,-30.14 723.37,-60.29 1075,-90.41 10.05,10.02 -10.05,-10.05 -10.05,-10.05z"/>
  <path class="fil0" d="M11623.89 18546.02c-401.83,0 -803.71,0 -1205.57,0l20.09 20.09c0,-361.67 0,-723.35 0,-1095.07 411.92,0 803.71,0 1195.52,0 0,0 -20.09,-20.09 -20.09,-20.09 0,371.72 0,743.44 0,1115.16l10.05 -20.09z"/>
  <path class="fil0" d="M10418.28 18546.02c-20.07,361.7 -40.18,723.37 -60.27,1115.18 -361.67,0 -703.28,0 -1075,0 0,-351.65 0,-693.21 0,-1105.13 401.86,0 773.6,0 1155.36,0 -10.05,10.05 -20.09,-10.05 -20.09,-10.05z"/>
  <path class="fil0" d="M9212.71 37443.66c-361.67,-20.09 -723.35,-40.2 -1105.11,-60.29 0,-371.72 0,-713.3 0,-1075 381.76,-20.07 743.44,-50.23 1105.11,-70.32 0,0 -20.09,-10.05 -20.09,-10.05 0,411.92 0,813.78 0,1225.7l20.09 -10.05z"/>
  <path class="fil0" d="M-0 11242.15c0,-401.86 0,-723.37 0,-1075 351.63,0 693.19,0 1064.95,0 0,351.63 0,693.21 0,1075 -351.65,0 -703.28,0 -1064.95,0z"/>
  <path class="fil0" d="M4681.7 6550.38c0,-371.72 0,-713.3 0,-1085.02 341.6,0 683.17,0 1064.95,0 0,361.67 0,703.26 0,1085.02 -361.7,0 -703.28,0 -1064.95,0z"/>
  <path class="fil0" d="M5796.86 28140.52c371.74,0 693.21,0 1054.89,0 0,361.67 0,703.28 0,1085.04 -341.58,0 -683.15,0 -1054.89,0 0,-351.65 0,-693.23 0,-1085.04z"/>
  <path class="fil0" d="M8067.4 1075c0,-381.76 0,-713.32 0,-1075 361.67,0 723.35,0 1105.11,0 0,361.67 0,723.35 0,1075 -381.76,0 -743.44,0 -1105.11,0z"/>
  <path class="fil0" d="M5314.64 31546.29c0,351.65 0,683.17 0,1044.84 -351.63,0 -683.15,0 -1054.87,0 0,-341.58 0,-673.12 0,-1044.84 341.56,0 673.08,0 1054.87,0z"/>
  <path class="fil0" d="M10358.01 20113.28c0,371.72 0,703.28 0,1064.95 -361.67,0 -703.28,0 -1075,0 0,-341.58 0,-683.17 0,-1064.95 351.67,0 683.19,0 1075,0z"/>
  <path class="fil0" d="M10418.28 26874.66c-361.67,20.09 -723.35,40.2 -1125.2,60.27 0,-381.74 0,-713.3 0,-1145.32 381.76,0 753.48,0 1125.2,0 0,0 -20.07,-10.05 -20.07,-10.05 0,371.72 0,743.46 0,1115.18l20.07 -20.09z"/>
  <path class="fil0" d="M6781.45 30531.58c351.63,0 693.19,0 1075,0 0,341.6 0,683.17 0,1064.95 -341.6,0 -693.21,0 -1075,0 0,-341.58 0,-693.19 0,-1064.95z"/>
  <path class="fil0" d="M2320.77 4410.47c361.67,0 703.26,0 1074.98,0 0,351.63 0,683.17 0,1044.84 -351.63,0 -693.19,0 -1074.98,0 0,-341.6 0,-683.17 0,-1044.84z"/>
  <path class="fil0" d="M7675.59 34088.09c0,371.72 0,693.19 0,1044.84 -361.67,0 -693.19,0 -1054.89,0 0,-351.65 0,-683.17 0,-1044.84 341.56,0 683.17,0 1054.89,0z"/>
  <path class="fil0" d="M5244.32 783.64c0,371.72 0,703.28 0,1054.89 -351.63,0 -673.12,0 -1034.8,0 0,-341.6 0,-683.17 0,-1054.89 321.47,0 663.06,0 1034.8,0z"/>
  <path class="fil0" d="M8107.6 27005.24c371.72,0 703.26,0 1064.95,0 0,361.67 0,703.26 0,1074.98 -341.6,0 -683.17,0 -1064.95,0 0,-351.63 0,-693.19 0,-1074.98z"/>
  <path class="fil0" d="M10418.28 30401.01c-361.67,0 -723.35,0 -1115.16,0 0,-351.65 0,-693.21 0,-1085.04 371.72,0 743.44,0 1125.2,0l-20.07 -20.09c0,371.72 0,743.44 0,1115.16l10.02 -10.02z"/>
  <path class="fil0" d="M9062.01 31676.9c0,361.7 0,683.17 0,1044.84 -351.63,0 -673.1,0 -1044.84,0 0,-331.54 0,-673.1 0,-1044.84 341.58,0 663.08,0 1044.84,0z"/>
  <path class="fil0" d="M6851.79 22353.68c-341.6,0 -673.12,0 -1034.8,0 0,-341.6 0,-673.12 0,-1054.89 331.54,0 673.1,0 1034.8,0 0,341.56 0,683.17 0,1054.89z"/>
  <path class="fil0" d="M5816.95 17953.28c341.6,0 673.12,0 1034.8,0 0,341.58 0,683.17 0,1054.89 -341.58,0 -673.12,0 -1034.8,0 0,-341.6 0,-663.08 0,-1054.89z"/>
  <path class="fil0" d="M8198.01 38568.86c0,361.67 0,693.19 0,1054.89 -361.67,0 -703.28,0 -1064.95,0 0,-361.7 0,-693.21 0,-1054.89 351.63,0 693.23,0 1064.95,0z"/>
  <path class="fil0" d="M3898.06 14658.01c361.67,0 683.17,0 1054.89,0 0,331.54 0,673.1 0,1044.82 -341.6,0 -683.17,0 -1054.89,0 0,-331.54 0,-653.03 0,-1044.82z"/>
  <path class="fil0" d="M6841.7 25759.45c-351.63,0 -683.15,0 -1034.8,0 0,-361.67 0,-693.19 0,-1054.87 341.6,0 673.12,0 1034.8,0 0,331.52 0,663.06 0,1054.87z"/>
  <path class="fil0" d="M3486.18 11392.85c0,-381.76 0,-713.32 0,-1075 351.63,0 693.19,0 1074.98,0 0,351.63 0,703.28 0,1075 -351.65,0 -693.21,0 -1074.98,0z"/>
  <path class="fil0" d="M4691.74 8027.24c361.67,0 683.17,0 1054.89,0 0,351.63 0,693.19 0,1064.95 -331.56,0 -673.12,0 -1054.89,0 0,-331.56 0,-673.14 0,-1064.95z"/>
  <path class="fil0" d="M8077.44 4279.86c-351.65,0 -673.12,0 -1034.8,0 0,-331.56 0,-673.12 0,-1044.84 331.54,0 673.1,0 1034.8,0 0,341.56 0,683.17 0,1044.84z"/>
  <path class="fil0" d="M6168.6 36288.3c0,351.63 0,663.08 0,1024.75 -331.56,0 -673.12,0 -1054.89,0 0,-311.45 0,-653.03 0,-1024.75 331.52,0 663.08,0 1054.89,0z"/>
 </g>
</svg>
